<mxfile host="app.diagrams.net" modified="2024-03-21T12:34:22.564Z" agent="Mozilla/5.0 (Windows NT 10.0; Win64; x64) AppleWebKit/537.36 (KHTML, like Gecko) Chrome/122.0.0.0 Safari/537.36" etag="noJBqixvgQ-z1nQXgKqJ" version="24.0.7" type="device">
  <diagram name="第 1 页" id="KIpX3c-wCrOJLtzICYyM">
    <mxGraphModel dx="1221" dy="759" grid="1" gridSize="10" guides="1" tooltips="1" connect="1" arrows="1" fold="1" page="1" pageScale="1" pageWidth="827" pageHeight="1169" math="0" shadow="0">
      <root>
        <mxCell id="0" />
        <mxCell id="1" parent="0" />
        <mxCell id="jwqjkrVz2e7f_SGWfXyb-4" value="" style="rounded=0;whiteSpace=wrap;html=1;" vertex="1" parent="1">
          <mxGeometry x="200" y="100" width="490" height="600" as="geometry" />
        </mxCell>
        <mxCell id="jwqjkrVz2e7f_SGWfXyb-2" value="User" style="shape=umlActor;verticalLabelPosition=bottom;verticalAlign=top;html=1;" vertex="1" parent="1">
          <mxGeometry x="50" y="320" width="30" height="60" as="geometry" />
        </mxCell>
        <mxCell id="jwqjkrVz2e7f_SGWfXyb-5" value="注册" style="ellipse;whiteSpace=wrap;html=1;" vertex="1" parent="1">
          <mxGeometry x="220" y="210" width="100" height="50" as="geometry" />
        </mxCell>
        <mxCell id="jwqjkrVz2e7f_SGWfXyb-6" value="登录&lt;span style=&quot;color: rgba(0, 0, 0, 0); font-family: monospace; font-size: 0px; text-align: start; text-wrap: nowrap;&quot;&gt;%3CmxGraphModel%3E%3Croot%3E%3CmxCell%20id%3D%220%22%2F%3E%3CmxCell%20id%3D%221%22%20parent%3D%220%22%2F%3E%3CmxCell%20id%3D%222%22%20value%3D%22%E6%B3%A8%E5%86%8C%22%20style%3D%22ellipse%3BwhiteSpace%3Dwrap%3Bhtml%3D1%3B%22%20vertex%3D%221%22%20parent%3D%221%22%3E%3CmxGeometry%20x%3D%22250%22%20y%3D%22230%22%20width%3D%22100%22%20height%3D%2250%22%20as%3D%22geometry%22%2F%3E%3C%2FmxCell%3E%3C%2Froot%3E%3C%2FmxGraphModel%3E&lt;/span&gt;" style="ellipse;whiteSpace=wrap;html=1;" vertex="1" parent="1">
          <mxGeometry x="220" y="280" width="100" height="50" as="geometry" />
        </mxCell>
        <mxCell id="jwqjkrVz2e7f_SGWfXyb-7" value="聊天&lt;span style=&quot;color: rgba(0, 0, 0, 0); font-family: monospace; font-size: 0px; text-align: start; text-wrap: nowrap;&quot;&gt;%3CmxGraphModel%3E%3Croot%3E%3CmxCell%20id%3D%220%22%2F%3E%3CmxCell%20id%3D%221%22%20parent%3D%220%22%2F%3E%3CmxCell%20id%3D%222%22%20value%3D%22%E7%99%BB%E5%BD%95%26lt%3Bspan%20style%3D%26quot%3Bcolor%3A%20rgba(0%2C%200%2C%200%2C%200)%3B%20font-family%3A%20monospace%3B%20font-size%3A%200px%3B%20text-align%3A%20start%3B%20text-wrap%3A%20nowrap%3B%26quot%3B%26gt%3B%253CmxGraphModel%253E%253Croot%253E%253CmxCell%2520id%253D%25220%2522%252F%253E%253CmxCell%2520id%253D%25221%2522%2520parent%253D%25220%2522%252F%253E%253CmxCell%2520id%253D%25222%2522%2520value%253D%2522%25E6%25B3%25A8%25E5%2586%258C%2522%2520style%253D%2522ellipse%253BwhiteSpace%253Dwrap%253Bhtml%253D1%253B%2522%2520vertex%253D%25221%2522%2520parent%253D%25221%2522%253E%253CmxGeometry%2520x%253D%2522250%2522%2520y%253D%2522230%2522%2520width%253D%2522100%2522%2520height%253D%252250%2522%2520as%253D%2522geometry%2522%252F%253E%253C%252FmxCell%253E%253C%252Froot%253E%253C%252FmxGraphModel%253E%26lt%3B%2Fspan%26gt%3B%22%20style%3D%22ellipse%3BwhiteSpace%3Dwrap%3Bhtml%3D1%3B%22%20vertex%3D%221%22%20parent%3D%221%22%3E%3CmxGeometry%20x%3D%22260%22%20y%3D%22310%22%20width%3D%22100%22%20height%3D%2250%22%20as%3D%22geometry%22%2F%3E%3C%2FmxCell%3E%3C%2Froot%3E%3C%2FmxGraphModel%3E&lt;/span&gt;" style="ellipse;whiteSpace=wrap;html=1;" vertex="1" parent="1">
          <mxGeometry x="220" y="350" width="100" height="50" as="geometry" />
        </mxCell>
        <mxCell id="jwqjkrVz2e7f_SGWfXyb-8" value="添加好友" style="ellipse;whiteSpace=wrap;html=1;" vertex="1" parent="1">
          <mxGeometry x="220" y="420" width="100" height="50" as="geometry" />
        </mxCell>
        <mxCell id="jwqjkrVz2e7f_SGWfXyb-9" value="创建群组" style="ellipse;whiteSpace=wrap;html=1;" vertex="1" parent="1">
          <mxGeometry x="220" y="490" width="100" height="50" as="geometry" />
        </mxCell>
        <mxCell id="jwqjkrVz2e7f_SGWfXyb-10" value="加入群组" style="ellipse;whiteSpace=wrap;html=1;" vertex="1" parent="1">
          <mxGeometry x="220" y="559.5" width="100" height="50" as="geometry" />
        </mxCell>
        <mxCell id="jwqjkrVz2e7f_SGWfXyb-11" value="验证密&lt;span style=&quot;color: rgba(0, 0, 0, 0); font-family: monospace; font-size: 0px; text-align: start; text-wrap: nowrap;&quot;&gt;%3CmxGraphModel%3E%3Croot%3E%3CmxCell%20id%3D%220%22%2F%3E%3CmxCell%20id%3D%221%22%20parent%3D%220%22%2F%3E%3CmxCell%20id%3D%222%22%20value%3D%22%E6%B3%A8%E5%86%8C%22%20style%3D%22ellipse%3BwhiteSpace%3Dwrap%3Bhtml%3D1%3B%22%20vertex%3D%221%22%20parent%3D%221%22%3E%3CmxGeometry%20x%3D%22260%22%20y%3D%22210%22%20width%3D%22100%22%20height%3D%2250%22%20as%3D%22geometry%22%2F%3E%3C%2FmxCell%3E%3C%2Froot%3E%3C%2FmxGraphModel%3E&lt;/span&gt;码&lt;span style=&quot;color: rgba(0, 0, 0, 0); font-family: monospace; font-size: 0px; text-align: start; text-wrap: nowrap;&quot;&gt;%3CmxGraphModel%3E%3Croot%3E%3CmxCell%20id%3D%220%22%2F%3E%3CmxCell%20id%3D%221%22%20parent%3D%220%22%2F%3E%3CmxCell%20id%3D%222%22%20value%3D%22%E6%B3%A8%E5%86%8C%22%20style%3D%22ellipse%3BwhiteSpace%3Dwrap%3Bhtml%3D1%3B%22%20vertex%3D%221%22%20parent%3D%221%22%3E%3CmxGeometry%20x%3D%22260%22%20y%3D%22210%22%20width%3D%22100%22%20height%3D%2250%22%20as%3D%22geometry%22%2F%3E%3C%2FmxCell%3E%3C%2Froot%3E%3C%2FmxGraphModel%3E&lt;/span&gt;" style="ellipse;whiteSpace=wrap;html=1;" vertex="1" parent="1">
          <mxGeometry x="400" y="170" width="100" height="50" as="geometry" />
        </mxCell>
        <mxCell id="jwqjkrVz2e7f_SGWfXyb-12" value="显示错误信息" style="ellipse;whiteSpace=wrap;html=1;" vertex="1" parent="1">
          <mxGeometry x="400" y="250" width="100" height="50" as="geometry" />
        </mxCell>
        <mxCell id="jwqjkrVz2e7f_SGWfXyb-16" value="" style="endArrow=none;html=1;rounded=0;exitX=1;exitY=0.3333333333333333;exitDx=0;exitDy=0;exitPerimeter=0;entryX=0;entryY=0.5;entryDx=0;entryDy=0;" edge="1" parent="1" source="jwqjkrVz2e7f_SGWfXyb-2" target="jwqjkrVz2e7f_SGWfXyb-5">
          <mxGeometry width="50" height="50" relative="1" as="geometry">
            <mxPoint x="350" y="420" as="sourcePoint" />
            <mxPoint x="400" y="370" as="targetPoint" />
          </mxGeometry>
        </mxCell>
        <mxCell id="jwqjkrVz2e7f_SGWfXyb-17" value="" style="endArrow=none;html=1;rounded=0;exitX=1;exitY=0.3333333333333333;exitDx=0;exitDy=0;exitPerimeter=0;entryX=0;entryY=0.5;entryDx=0;entryDy=0;" edge="1" parent="1" source="jwqjkrVz2e7f_SGWfXyb-2" target="jwqjkrVz2e7f_SGWfXyb-6">
          <mxGeometry width="50" height="50" relative="1" as="geometry">
            <mxPoint x="350" y="420" as="sourcePoint" />
            <mxPoint x="400" y="370" as="targetPoint" />
          </mxGeometry>
        </mxCell>
        <mxCell id="jwqjkrVz2e7f_SGWfXyb-18" value="" style="endArrow=none;html=1;rounded=0;entryX=0;entryY=0.5;entryDx=0;entryDy=0;exitX=1;exitY=0.3333333333333333;exitDx=0;exitDy=0;exitPerimeter=0;" edge="1" parent="1" source="jwqjkrVz2e7f_SGWfXyb-2" target="jwqjkrVz2e7f_SGWfXyb-7">
          <mxGeometry width="50" height="50" relative="1" as="geometry">
            <mxPoint x="80" y="350" as="sourcePoint" />
            <mxPoint x="230" y="315" as="targetPoint" />
          </mxGeometry>
        </mxCell>
        <mxCell id="jwqjkrVz2e7f_SGWfXyb-19" value="" style="endArrow=none;html=1;rounded=0;exitX=1;exitY=0.3333333333333333;exitDx=0;exitDy=0;exitPerimeter=0;entryX=0;entryY=0.5;entryDx=0;entryDy=0;" edge="1" parent="1" source="jwqjkrVz2e7f_SGWfXyb-2" target="jwqjkrVz2e7f_SGWfXyb-8">
          <mxGeometry width="50" height="50" relative="1" as="geometry">
            <mxPoint x="100" y="360" as="sourcePoint" />
            <mxPoint x="240" y="325" as="targetPoint" />
          </mxGeometry>
        </mxCell>
        <mxCell id="jwqjkrVz2e7f_SGWfXyb-20" value="" style="endArrow=none;html=1;rounded=0;exitX=1;exitY=0.3333333333333333;exitDx=0;exitDy=0;exitPerimeter=0;entryX=0;entryY=0.5;entryDx=0;entryDy=0;" edge="1" parent="1" source="jwqjkrVz2e7f_SGWfXyb-2" target="jwqjkrVz2e7f_SGWfXyb-9">
          <mxGeometry width="50" height="50" relative="1" as="geometry">
            <mxPoint x="110" y="370" as="sourcePoint" />
            <mxPoint x="250" y="335" as="targetPoint" />
          </mxGeometry>
        </mxCell>
        <mxCell id="jwqjkrVz2e7f_SGWfXyb-21" value="" style="endArrow=none;html=1;rounded=0;exitX=1;exitY=0.3333333333333333;exitDx=0;exitDy=0;exitPerimeter=0;entryX=0;entryY=0.5;entryDx=0;entryDy=0;" edge="1" parent="1" source="jwqjkrVz2e7f_SGWfXyb-2" target="jwqjkrVz2e7f_SGWfXyb-10">
          <mxGeometry width="50" height="50" relative="1" as="geometry">
            <mxPoint x="120" y="380" as="sourcePoint" />
            <mxPoint x="260" y="345" as="targetPoint" />
          </mxGeometry>
        </mxCell>
        <mxCell id="jwqjkrVz2e7f_SGWfXyb-22" value="&amp;lt;&amp;lt;include&amp;gt;&amp;gt;" style="html=1;verticalAlign=bottom;labelBackgroundColor=none;endArrow=open;endFill=0;dashed=1;rounded=0;exitX=1;exitY=0.5;exitDx=0;exitDy=0;entryX=0;entryY=0.5;entryDx=0;entryDy=0;" edge="1" parent="1" source="jwqjkrVz2e7f_SGWfXyb-5" target="jwqjkrVz2e7f_SGWfXyb-11">
          <mxGeometry width="160" relative="1" as="geometry">
            <mxPoint x="290" y="390" as="sourcePoint" />
            <mxPoint x="450" y="390" as="targetPoint" />
          </mxGeometry>
        </mxCell>
        <mxCell id="jwqjkrVz2e7f_SGWfXyb-23" value="&amp;lt;&amp;lt;extend&amp;gt;&amp;gt;" style="html=1;verticalAlign=bottom;labelBackgroundColor=none;endArrow=open;endFill=0;dashed=1;rounded=0;exitX=0;exitY=0.5;exitDx=0;exitDy=0;entryX=1;entryY=0.5;entryDx=0;entryDy=0;" edge="1" parent="1" source="jwqjkrVz2e7f_SGWfXyb-12" target="jwqjkrVz2e7f_SGWfXyb-5">
          <mxGeometry width="160" relative="1" as="geometry">
            <mxPoint x="290" y="370" as="sourcePoint" />
            <mxPoint x="450" y="370" as="targetPoint" />
          </mxGeometry>
        </mxCell>
        <mxCell id="jwqjkrVz2e7f_SGWfXyb-24" value="IM系统" style="text;html=1;align=center;verticalAlign=middle;whiteSpace=wrap;rounded=0;" vertex="1" parent="1">
          <mxGeometry x="400" y="100" width="60" height="30" as="geometry" />
        </mxCell>
      </root>
    </mxGraphModel>
  </diagram>
</mxfile>
